<svg width="141" height="141" viewBox="0 0 141 141" fill="none" xmlns="http://www.w3.org/2000/svg">
<g id="arrow-left 1">
<g id="Group">
<g id="Group_2">
<path id="Vector" d="M50.8527 30.2495C50.4503 30.1879 50.123 29.8628 50.0759 29.4387C50.0202 28.9325 50.385 28.4757 50.8923 28.4214C51.5201 28.352 52.1469 28.2973 52.7717 28.2561C53.2815 28.2258 53.7193 28.6089 53.7524 29.1166C53.7854 29.6244 53.4008 30.0645 52.8918 30.0974C52.2935 30.1365 51.6942 30.1903 51.0943 30.2566C51.011 30.2637 50.9305 30.2614 50.8527 30.2495Z" fill="#BA945E"/>
</g>
<g id="Group_3">
<path id="Vector_2" d="M51.9098 29.2366C51.8748 28.7335 52.2672 28.2834 52.7684 28.2605C53.2715 28.2255 53.7113 28.6039 53.7566 29.121C53.7795 29.6223 53.4011 30.0621 52.898 30.0971C52.8232 30.0981 52.7605 30.1009 52.6876 30.0898C52.2742 30.0265 51.942 29.677 51.9098 29.2366Z" fill="#BA945E"/>
</g>
<g id="Group_4">
<path id="Vector_3" d="M49.1084 111.94C48.1722 111.797 47.2294 111.616 46.3147 111.413C45.8218 111.301 45.5184 110.844 45.605 110.359C45.6069 110.347 45.6106 110.323 45.6125 110.31C45.7252 109.818 46.2103 109.494 46.7154 109.608C47.8939 109.876 49.0817 110.082 50.2769 110.24L50.3134 110.246C50.7998 110.32 51.1517 110.785 51.0895 111.273C51.0235 111.786 50.559 112.138 50.0465 112.072C49.7528 112.039 49.4489 111.993 49.1084 111.94ZM53.7312 112.387C53.2692 112.316 52.9341 111.904 52.9562 111.434C52.9496 111.396 52.9533 111.372 52.9589 111.335C53.0296 110.873 53.4314 110.524 53.9009 110.546C55.1251 110.597 56.3464 110.584 57.5246 110.528C57.5246 110.528 57.5368 110.53 57.5386 110.518C58.0398 110.495 58.4881 110.9 58.5109 111.401C58.5138 111.464 58.5045 111.524 58.4952 111.585C58.4282 112.023 58.0684 112.341 57.6299 112.361C56.3749 112.43 55.1031 112.447 53.8425 112.391C53.806 112.386 53.7677 112.392 53.7312 112.387ZM42.7912 110.451C42.7426 110.444 42.694 110.436 42.6472 110.417L42.6107 110.411C42.6004 110.397 42.5883 110.395 42.5761 110.393C42.3385 110.32 42.1523 110.154 42.0361 109.937C41.9322 109.722 41.9086 109.47 41.9823 109.232C42.1297 108.757 42.6578 108.477 43.1433 108.639L43.1797 108.644C43.19 108.658 43.2022 108.66 43.2144 108.662L43.2265 108.664C43.6512 108.816 43.9096 109.241 43.8305 109.677L43.8082 109.823C43.6682 110.249 43.2411 110.52 42.7912 110.451ZM61.1439 112.003C60.7426 111.942 60.4291 111.632 60.3671 111.225C60.3558 111.136 60.3585 111.037 60.3734 110.939C60.447 110.54 60.7544 110.239 61.1621 110.177C62.3187 110.018 63.523 109.791 64.7226 109.514C65.2125 109.403 65.7243 109.718 65.8378 110.195C65.8679 110.324 65.8614 110.448 65.8428 110.569C65.787 110.934 65.5057 111.227 65.1448 111.309C63.9191 111.594 62.6643 111.825 61.4169 112.007C61.3281 112.019 61.2411 112.018 61.1439 112.003ZM68.3713 110.309C68.0308 110.257 67.7426 110.026 67.6329 109.686C67.5907 109.555 67.5729 109.428 67.5952 109.282C67.6351 108.94 67.8799 108.641 68.2202 108.532C69.3739 108.148 70.5247 107.702 71.6166 107.235C72.0709 107.03 72.6341 107.254 72.8261 107.706C72.8889 107.865 72.9133 108.03 72.8995 108.202C72.8511 108.519 72.6484 108.786 72.3548 108.915C71.2069 109.424 70.0056 109.875 68.7995 110.275C68.6668 110.33 68.5172 110.332 68.3713 110.309ZM75.1834 107.345C74.8915 107.3 74.6427 107.138 74.5078 106.881C74.4104 106.704 74.3775 106.512 74.4092 106.306C74.4398 106.024 74.6163 105.765 74.8734 105.63C75.9194 105.056 76.9625 104.419 77.9747 103.741C78.3776 103.466 78.9818 103.584 79.2542 103.999C79.3881 104.181 79.4397 104.413 79.4044 104.644C79.3653 104.899 79.2186 105.125 79.0102 105.268C77.9699 105.967 76.8848 106.635 75.7584 107.246C75.5817 107.344 75.3779 107.375 75.1834 107.345ZM81.3287 103.209C81.1098 103.175 80.904 103.057 80.758 102.872C80.5895 102.672 80.5173 102.413 80.5564 102.157C80.5917 101.926 80.7103 101.72 80.8926 101.586C81.8308 100.822 82.7401 100.003 83.5886 99.1744L83.6026 99.1641C83.9539 98.8197 84.5627 98.8258 84.9071 99.1771C85.1102 99.3949 85.203 99.6828 85.1584 99.9746C85.1286 100.169 85.0399 100.342 84.8941 100.482C83.9999 101.365 83.0364 102.213 82.0561 103.009C81.8561 103.177 81.5962 103.25 81.3287 103.209ZM86.6512 98.0255C86.481 97.9995 86.3163 97.9369 86.1853 97.8173C85.9439 97.6062 85.8305 97.2902 85.8789 96.9741C85.9049 96.8039 85.9796 96.6411 86.0852 96.5204C86.8737 95.5958 87.6295 94.6414 88.3282 93.6533C88.614 93.2491 89.2012 93.1523 89.6176 93.44C89.9095 93.6464 90.0435 93.9904 89.9896 94.343C89.9672 94.4889 89.9103 94.6171 89.8309 94.7294C89.0883 95.7605 88.2989 96.772 87.4945 97.719C87.2833 97.9605 86.9673 98.0739 86.6512 98.0255ZM90.9593 91.9904C90.8377 91.9718 90.732 91.9307 90.6301 91.8653C90.3101 91.6795 90.1293 91.3158 90.1851 90.9511C90.2037 90.8295 90.2345 90.7098 90.2999 90.6078C90.9069 89.5684 91.483 88.4869 91.9862 87.3942C92.2047 86.9424 92.7703 86.7427 93.224 86.949C93.5842 87.1161 93.7977 87.5097 93.7363 87.9109C93.7233 87.996 93.6962 88.0914 93.6589 88.1728C93.1239 89.3104 92.5264 90.4508 91.8876 91.5351C91.6999 91.8673 91.3362 92.048 90.9593 91.9904ZM94.1157 85.2688C94.0549 85.2595 93.996 85.238 93.9371 85.2166C93.5246 85.0663 93.2764 84.6551 93.3434 84.2174C93.3527 84.1566 93.362 84.0958 93.3835 84.0368C93.7912 82.9171 94.1578 81.7414 94.4739 80.5703C94.5988 80.0792 95.1045 79.7833 95.5937 79.9204C96.0604 80.0416 96.3535 80.4846 96.2828 80.9467C96.2772 80.9831 96.2595 81.0178 96.2557 81.0421C95.9341 82.2496 95.5601 83.474 95.1168 84.663C94.9666 85.0755 94.5413 85.3339 94.1157 85.2688ZM96.0103 78.0928C95.4893 78.0006 95.1513 77.5258 95.2416 77.017C95.2714 76.8225 95.303 76.6158 95.3347 76.4091C95.4872 75.4121 95.6033 74.4096 95.6811 73.4136C95.6848 73.3892 95.6904 73.3528 95.696 73.3163C95.7789 72.8561 96.2013 72.535 96.6689 72.5693C97.1851 72.6109 97.5549 73.0408 97.515 73.5449C97.5272 73.5468 97.5253 73.5589 97.5253 73.5589L97.516 73.6197C97.4346 74.64 97.3147 75.6669 97.1584 76.6882L97.0617 77.3205C96.9714 77.8293 96.5088 78.1691 96.0103 78.0928ZM96.5711 70.6878C96.1334 70.6208 95.8067 70.2349 95.8007 69.786C95.7727 68.5872 95.7118 67.3584 95.5846 66.1569C95.5715 66.0802 95.5826 66.0072 95.5957 65.9221C95.6468 65.5069 95.9944 65.1868 96.4105 65.1509C96.9052 65.0897 97.3693 65.4718 97.4183 65.9646C97.5465 67.241 97.6261 68.5099 97.6345 69.7556C97.6392 69.8061 97.6318 69.8547 97.6262 69.8912C97.5677 70.355 97.192 70.6957 96.731 70.6998C96.6824 70.6924 96.6197 70.6953 96.5711 70.6878ZM95.8096 63.3045C95.4327 63.2468 95.1295 62.9515 95.0515 62.5663C94.8234 61.3742 94.5325 60.1849 94.1978 59.0386C94.1574 58.8956 94.1536 58.7581 94.1741 58.6244C94.228 58.2718 94.4831 57.9873 94.8215 57.8898C95.303 57.7519 95.8307 58.0442 95.9685 58.5257C96.3183 59.7365 96.626 60.9781 96.8608 62.2086C96.8805 62.3236 96.8778 62.4227 96.861 62.5321C96.8034 62.909 96.5062 63.2244 96.135 63.292C96.0322 63.3136 95.919 63.3212 95.8096 63.3045ZM93.7532 56.1709C93.4249 56.1206 93.147 55.9039 93.0317 55.6001C92.5838 54.4614 92.0938 53.3537 91.5618 52.2768C91.4747 52.1141 91.4418 51.9225 91.4697 51.7401C91.5022 51.4464 91.6928 51.1769 91.962 51.0439C92.406 50.8257 92.9869 51.0141 93.2051 51.4582C93.7765 52.6033 94.2955 53.7652 94.7518 54.9301C94.8165 55.0768 94.8269 55.2526 94.8009 55.4229C94.7403 55.7371 94.5254 56.0029 94.2216 56.1181C94.0748 56.1828 93.9112 56.1951 93.7532 56.1709ZM90.4393 49.5293C90.1718 49.4883 89.9332 49.3398 89.7825 49.1052C89.1664 48.0901 88.4735 47.0882 87.7387 46.1172C87.5945 45.9209 87.5326 45.675 87.5576 45.43C87.5949 45.1868 87.7275 44.9707 87.9256 44.8144C88.3181 44.526 88.9158 44.605 89.2163 44.9994C89.9699 46.0107 90.6917 47.0668 91.349 48.138C91.4707 48.3184 91.5121 48.5362 91.4804 48.7429C91.4498 49.0244 91.2891 49.2611 91.0545 49.4119C90.876 49.5214 90.646 49.5609 90.4393 49.5293ZM85.9702 43.6068C85.7635 43.5751 85.568 43.4705 85.4304 43.3126C84.6217 42.4174 83.7709 41.553 82.8884 40.7336C82.8763 40.7318 82.8763 40.7318 82.8763 40.7318C82.647 40.5225 82.5458 40.2083 82.5923 39.9044C82.6202 39.722 82.6949 39.5592 82.8266 39.4301C83.1555 39.0698 83.7699 39.0394 84.1302 39.3682C85.0557 40.2316 85.9495 41.1398 86.8012 42.079C86.9819 42.2808 87.0644 42.5548 87.0235 42.8223C86.99 43.0411 86.8854 43.2366 86.7275 43.3742C86.5238 43.567 86.2498 43.6496 85.9702 43.6068ZM80.5198 38.5669C80.3618 38.5427 80.2233 38.4717 80.1007 38.3783C79.1547 37.6487 78.1545 36.9481 77.1225 36.2925C76.8166 36.0963 76.6479 35.7346 76.7178 35.3595C76.7364 35.2379 76.7774 35.1322 76.8447 35.0181C77.1062 34.6102 77.699 34.4769 78.1191 34.7403C79.196 35.4277 80.2411 36.16 81.2199 36.9195C81.4997 37.1241 81.6215 37.4663 81.5713 37.7945C81.5471 37.9526 81.4883 38.0929 81.3949 38.2155C81.1922 38.4831 80.8481 38.6171 80.5198 38.5669ZM74.2624 34.5731C74.1651 34.5583 74.0697 34.5312 73.9762 34.492C72.9171 33.9318 71.8001 33.4249 70.6757 32.9666C70.2894 32.8079 70.0534 32.3985 70.1167 31.9851C70.1278 31.9122 70.139 31.8392 70.1763 31.7578C70.3583 31.3004 70.9033 31.0727 71.3729 31.2566C72.5441 31.7344 73.706 32.2731 74.8258 32.8427C75.1823 33.0341 75.3836 33.4258 75.3101 33.8251C75.2952 33.9224 75.27 34.0056 75.2205 34.0852C75.0413 34.4435 74.6514 34.6327 74.2624 34.5731ZM67.3859 31.7788C67.3372 31.7713 67.3007 31.7657 67.254 31.7461C66.1007 31.3954 64.9277 31.0915 63.7333 30.8465C63.2629 30.7496 62.9352 30.2889 63.0096 29.8025C63.0115 29.7904 63.0152 29.766 63.0171 29.7539C63.1298 29.261 63.6149 28.937 64.1097 29.0376C65.3387 29.3004 66.5724 29.6136 67.7968 29.9876C68.2252 30.1154 68.508 30.5444 68.4391 30.9943C68.4317 31.0429 68.4243 31.0915 68.4047 31.1383C68.2769 31.5667 67.8357 31.8476 67.3859 31.7788ZM56.4076 30.0116C55.9456 29.9409 55.6086 29.5409 55.6307 29.0715C55.6341 28.5618 56.0555 28.1659 56.5651 28.1693C57.8173 28.1991 59.0845 28.2935 60.3565 28.4384L60.3929 28.444C60.8793 28.5184 61.2228 28.9567 61.1709 29.4589L61.1634 29.5075C61.0909 29.9817 60.6544 30.3131 60.1643 30.263C60.1625 30.2752 60.1503 30.2733 60.1503 30.2733L60.1138 30.2677L60.0895 30.264C58.9149 30.134 57.7085 30.0489 56.5311 30.0181C56.4806 30.0228 56.4441 30.0172 56.4076 30.0116Z" fill="#BA945E"/>
</g>
<g id="Group_5">
<path id="Vector_4" d="M42.7187 110.429C42.67 110.422 42.6207 110.411 42.5734 110.395C41.9747 110.201 41.3804 109.994 40.793 109.775C40.3152 109.596 40.073 109.065 40.2518 108.587C40.4307 108.109 40.9639 107.87 41.4396 108.046C42.0022 108.256 42.5692 108.454 43.1418 108.64C43.6268 108.796 43.8932 109.316 43.7356 109.801C43.5942 110.237 43.1576 110.496 42.7187 110.429Z" fill="#BA945E"/>
</g>
</g>
<g id="Group_6">
<path id="Vector_5" d="M55.9423 35.2562C55.8073 35.2355 55.6756 35.1855 55.5564 35.1026L48.6329 30.2977C48.4103 30.1429 48.2673 29.8983 48.2414 29.628C48.2156 29.3578 48.3101 29.0898 48.499 28.896L54.2425 23.0033C54.5982 22.6384 55.1817 22.6307 55.5466 22.9864C55.9115 23.3421 55.9193 23.9256 55.5635 24.2905L50.5815 29.4038L56.6095 33.5876C57.0279 33.8781 57.1316 34.4527 56.8411 34.8711C56.6325 35.169 56.2791 35.3077 55.9423 35.2562Z" fill="#BA945E"/>
</g>
</g>
</svg>
