<svg width="199" height="51" viewBox="0 0 199 51" fill="none" xmlns="http://www.w3.org/2000/svg">
<g clip-path="url(#clip0_1_49)">
<path fill-rule="evenodd" clip-rule="evenodd" d="M0.0920296 19.95H57.6109V0L0.0920296 19.95ZM101.442 27.3959V23.1419H119.443V33.7799H106.841V29.5259H115.841V27.3959H101.442ZM101.442 40.1639V29.5259H105.043V40.1639H101.442ZM81.6369 23.1479V25.2779L85.2322 29.5319L87.9257 26.3519L85.2322 23.1479H81.6369ZM81.6369 38.0399V40.1699H85.2322L91.5394 32.7179L97.8343 40.1699H99.638V35.9159L94.2328 29.5319L99.638 23.1479H94.2328L81.6308 38.0459L81.6369 38.0399ZM67.2311 33.7799H78.0294V29.5259H67.2311V33.7799ZM61.832 40.1699V23.1479H79.8331V27.4019H65.4335V35.9159H79.8331V40.1699H61.832ZM19.8049 33.8582V23.2201H32.4069V27.4741H23.4064V33.8582H19.8049ZM19.8049 40.2421V35.9881V35.9822H34.2107V23.2141H37.806V40.2421H19.8049ZM0 40.248H3.60145V29.61H0V40.248ZM18.0011 23.226V33.864V33.87H12.602L18.0011 40.254H12.602L5.39911 31.74V29.61H14.3997V27.48H0V23.226H18.0011ZM45.0089 23.2199H57.6109V27.4739H45.0089V23.2199ZM39.6037 23.2199V33.8579H54.0095V35.9879H39.6037V40.2419H57.6109V29.6039H43.2051V23.2199H39.6037ZM124.842 40.1639H121.241V29.5259H124.842V40.1639ZM139.242 33.7799V23.1419H121.241V27.3959H135.64V29.5259H126.64V31.6559L133.843 40.1699H139.242L133.843 33.7859H139.242V33.7799ZM146.451 33.7799H157.249V29.5259H146.451V33.7799ZM159.053 35.9099V40.1639V40.1699H141.052V23.1419H159.053V27.3959H144.653V35.9099H159.053ZM178.858 40.1639V29.5259H164.452V23.1419H160.857V33.7799H175.256V35.9099H160.857V40.1639H178.858ZM178.858 27.3959V23.1419H166.256V27.3959H178.858ZM198.663 29.5259V40.1639H180.661V35.9099H195.061V33.7799H180.661V23.1419H184.263V29.5259H198.663ZM198.663 23.1419V27.3959H186.061V23.1419H198.663ZM198.497 19.95H61.832V0L198.497 19.95ZM57.6109 51.0001V43.0021H0.454014L57.6109 51.0001ZM61.832 43.0021H199L61.832 51.0001V43.0021Z" fill="url(#paint0_linear_1_49)"/>
</g>
<defs>
<linearGradient id="paint0_linear_1_49" x1="0.0748683" y1="25.5" x2="199.011" y2="25.5" gradientUnits="userSpaceOnUse">
<stop stop-color="#9F734C"/>
<stop offset="0.13" stop-color="#BA945E"/>
<stop offset="0.28" stop-color="#D1B16E"/>
<stop offset="0.42" stop-color="#E2C579"/>
<stop offset="0.56" stop-color="#ECD180"/>
<stop offset="0.7" stop-color="#F0D683"/>
<stop offset="0.75" stop-color="#E7CC7D"/>
<stop offset="0.84" stop-color="#D2B16E"/>
<stop offset="0.95" stop-color="#AF8757"/>
<stop offset="1" stop-color="#9F734C"/>
</linearGradient>
<clipPath id="clip0_1_49">
<rect width="199" height="51" fill="white"/>
</clipPath>
</defs>
</svg>
