<svg width="24" height="24" viewBox="0 0 24 24" fill="none" xmlns="http://www.w3.org/2000/svg">
<g id="check (1)" clip-path="url(#clip0_1_81)">
<path id="Vector" d="M0 12C0 9.82452 0.533328 7.81754 1.6 5.97895C2.6807 4.14035 4.14035 2.68772 5.97895 1.62106C7.83158 0.540348 9.83856 0 12 0C14.1755 0 16.1825 0.540348 18.021 1.62106C19.8596 2.68772 21.3122 4.14737 22.3789 6C23.4596 7.83859 24 9.83856 24 12C24 14.1614 23.4596 16.1684 22.3789 18.021C21.3122 19.8596 19.8527 21.3193 18 22.4C16.1614 23.4667 14.1614 24 12 24C9.83856 24 7.83158 23.4667 5.97895 22.4C4.14035 21.3193 2.6807 19.8596 1.6 18.021C0.533328 16.1684 0 14.1614 0 12ZM8.50526 15.6L10.2106 17.3053L11.9158 15.6L19.1158 8.4L17.4106 6.69474L10.2106 13.8947L6.61052 10.2947L4.90526 12L8.50526 15.6Z" fill="#17868D"/>
</g>
<defs>
<clipPath id="clip0_1_81">
<rect width="24" height="24" fill="white"/>
</clipPath>
</defs>
</svg>
