<svg width="40" height="40" viewBox="0 0 40 40" fill="none" xmlns="http://www.w3.org/2000/svg">
<g id="Tg">
<g id="OBJECTS">
<g id="Group">
<g id="Group_2">
<path id="Vector" d="M31.8812 0H8.11881C3.63492 0 0 3.63492 0 8.11881V31.8812C0 36.3651 3.63492 40 8.11881 40H31.8812C36.3651 40 40 36.3651 40 31.8812V8.11881C40 3.63492 36.3651 0 31.8812 0Z" fill="url(#paint0_radial_1_135)"/>
<path id="icon" d="M27.7071 13.4338L27.4122 13.5375L11.4076 19.1295C11.2942 19.1636 11.1957 19.2331 11.1274 19.3273C11.0591 19.4215 11.025 19.5349 11.0303 19.6499C11.0357 19.765 11.0803 19.875 11.1571 19.9628C11.2339 20.0506 11.3385 20.1112 11.4546 20.1351L15.5975 21.235L16.3704 23.4347L17.1432 25.6344C17.1876 25.7423 17.2585 25.838 17.3497 25.9132C17.4409 25.9885 17.5496 26.041 17.6665 26.0662C17.7834 26.0915 17.9048 26.0886 18.0203 26.058C18.1358 26.0274 18.2418 25.9699 18.3292 25.8906L20.4695 23.9297L24.6724 26.6935C25.186 27.0328 25.9183 26.7814 26.0496 26.2221L28.8331 14.2949C28.9692 13.7041 28.3276 13.2186 27.7071 13.4338ZM25.664 16.0814L18.4329 21.8132L18.0927 22.0835C18.0179 22.1409 17.9691 22.2243 17.9566 22.316L17.8804 22.9256L17.6714 24.6383C17.6731 24.6591 17.6663 24.6798 17.6523 24.6957C17.6383 24.7116 17.6184 24.7215 17.5969 24.7231C17.5754 24.7248 17.5541 24.7181 17.5377 24.7046C17.5213 24.691 17.5111 24.6717 17.5094 24.6508L16.9213 22.9398L16.3137 21.1879C16.288 21.1091 16.2914 21.0241 16.3233 20.9476C16.3553 20.871 16.4137 20.8076 16.4887 20.7683L24.013 16.5857L25.429 15.8001C25.6348 15.6838 25.8454 15.9368 25.664 16.0814Z" fill="url(#paint1_linear_1_135)"/>
<path id="Vector_2" d="M37.2277 31.8809V8.11851C37.2277 5.1657 34.8339 2.77197 31.8811 2.77197L8.11876 2.77197C5.16595 2.77197 2.77222 5.1657 2.77222 8.11851V31.8809C2.77222 34.8337 5.16595 37.2274 8.11876 37.2274H31.8811C34.8339 37.2274 37.2277 34.8337 37.2277 31.8809Z" stroke="url(#paint2_linear_1_135)" stroke-miterlimit="10"/>
</g>
</g>
</g>
</g>
<defs>
<radialGradient id="paint0_radial_1_135" cx="0" cy="0" r="1" gradientUnits="userSpaceOnUse" gradientTransform="translate(4.15841 3.36634) scale(47.7505 47.7505)">
<stop stop-color="#3D3D3D"/>
<stop offset="1" stop-color="#141414"/>
</radialGradient>
<linearGradient id="paint1_linear_1_135" x1="11.028" y1="20.1177" x2="28.8472" y2="20.1177" gradientUnits="userSpaceOnUse">
<stop stop-color="#9F734C"/>
<stop offset="0.13" stop-color="#BA945E"/>
<stop offset="0.28" stop-color="#D1B16E"/>
<stop offset="0.42" stop-color="#E2C579"/>
<stop offset="0.56" stop-color="#ECD180"/>
<stop offset="0.7" stop-color="#F0D683"/>
<stop offset="0.75" stop-color="#E7CC7D"/>
<stop offset="0.84" stop-color="#D2B16E"/>
<stop offset="0.95" stop-color="#AF8757"/>
<stop offset="1" stop-color="#9F734C"/>
</linearGradient>
<linearGradient id="paint2_linear_1_135" x1="2.5742" y1="19.9997" x2="37.4257" y2="19.9997" gradientUnits="userSpaceOnUse">
<stop stop-color="#9F734C"/>
<stop offset="0.13" stop-color="#BA945E"/>
<stop offset="0.28" stop-color="#D1B16E"/>
<stop offset="0.42" stop-color="#E2C579"/>
<stop offset="0.56" stop-color="#ECD180"/>
<stop offset="0.7" stop-color="#F0D683"/>
<stop offset="0.75" stop-color="#E7CC7D"/>
<stop offset="0.84" stop-color="#D2B16E"/>
<stop offset="0.95" stop-color="#AF8757"/>
<stop offset="1" stop-color="#9F734C"/>
</linearGradient>
</defs>
</svg>
