<svg width="68" height="68" viewBox="0 0 68 68" fill="none" xmlns="http://www.w3.org/2000/svg">
<g id="youtube 1" clip-path="url(#clip0_1_152)">
<g id="Layer 2">
<g id="Color">
<g id="02.YouTube">
<path id="Background" d="M67.5 34C67.5 52.5015 52.5015 67.5 34 67.5C15.4985 67.5 0.5 52.5015 0.5 34C0.5 15.4985 15.4985 0.5 34 0.5C52.5015 0.5 67.5 15.4985 67.5 34Z" fill="url(#paint0_linear_1_152)" stroke="#F0D683"/>
<path id="Icon" d="M45.126 21.21H22.8739C21.9847 21.21 21.1041 21.3852 20.2826 21.7256C19.4611 22.0661 18.7148 22.565 18.0862 23.194C17.4576 23.823 16.9591 24.5698 16.6192 25.3915C16.2793 26.2132 16.1047 27.0939 16.1053 27.9831V40.0173C16.1047 40.9066 16.2793 41.7872 16.6192 42.609C16.9591 43.4307 17.4576 44.1774 18.0862 44.8064C18.7148 45.4354 19.4611 45.9344 20.2826 46.2748C21.1041 46.6153 21.9847 46.7905 22.8739 46.7905H45.126C46.0153 46.7905 46.8958 46.6153 47.7173 46.2748C48.5388 45.9344 49.2852 45.4354 49.9138 44.8064C50.5424 44.1774 51.0409 43.4307 51.3808 42.609C51.7207 41.7872 51.8953 40.9066 51.8947 40.0173V27.9831C51.8953 27.0939 51.7207 26.2132 51.3808 25.3915C51.0409 24.5698 50.5424 23.823 49.9138 23.194C49.2852 22.565 48.5388 22.0661 47.7173 21.7256C46.8958 21.3852 46.0153 21.21 45.126 21.21ZM29.2847 39.485V28.5155L38.7153 34.0002L29.2847 39.485Z" fill="#222222"/>
</g>
</g>
</g>
</g>
<defs>
<linearGradient id="paint0_linear_1_152" x1="34" y1="0" x2="34" y2="68" gradientUnits="userSpaceOnUse">
<stop stop-color="#DEC173"/>
<stop offset="1" stop-color="#A77E42"/>
</linearGradient>
<clipPath id="clip0_1_152">
<rect width="68" height="68" fill="white"/>
</clipPath>
</defs>
</svg>
